<svg width="26" height="23" viewBox="0 0 26 23" fill="none" xmlns="http://www.w3.org/2000/svg">
<path d="M7.75268 22.3883C12.0344 22.3883 15.5054 18.8127 15.5054 14.4019C15.5054 9.99116 12.0344 6.41553 7.75268 6.41553C3.47099 6.41553 0 9.99116 0 14.4019C0 18.8127 3.47099 22.3883 7.75268 22.3883Z" fill="#FFBC00"/>
<path d="M7.75142 21.045C11.3129 21.045 14.2001 18.0708 14.2001 14.4019C14.2001 10.7331 11.3129 7.75885 7.75142 7.75885C4.18991 7.75885 1.30273 10.7331 1.30273 14.4019C1.30273 18.0708 4.18991 21.045 7.75142 21.045Z" fill="#FFDA00"/>
<path d="M7.75338 20.3771C10.9568 20.3771 13.5536 17.7019 13.5536 14.4019C13.5536 11.102 10.9568 8.42682 7.75338 8.42682C4.54999 8.42682 1.95312 11.102 1.95312 14.4019C1.95312 17.7019 4.54999 20.3771 7.75338 20.3771Z" fill="#FFBC00"/>
<path d="M7.525 18.8135V18.0355C6.58442 17.9327 5.73647 17.551 4.98828 16.8757L5.7436 15.9508C6.32077 16.4719 6.91933 16.7802 7.53213 16.8757V14.813C6.75544 14.6222 6.18539 14.3726 5.82198 14.0569C5.45857 13.7413 5.28043 13.2789 5.28043 12.6696C5.28043 12.0603 5.48708 11.5539 5.90749 11.1648C6.32077 10.7758 6.86945 10.5629 7.53213 10.5262V9.99768H8.19481V10.5409C8.95013 10.5996 9.66982 10.8639 10.3396 11.341L9.66982 12.3173C9.21378 11.9869 8.72211 11.7814 8.19481 11.7007V13.6973H8.22332C9.01426 13.8881 9.59856 14.145 9.96909 14.4753C10.3396 14.7983 10.5249 15.2755 10.5249 15.8921C10.5249 16.5087 10.3111 17.0151 9.88359 17.4042C9.45605 17.7932 8.89313 18.0061 8.18769 18.0428V18.8062H7.525V18.8135ZM6.79107 11.9502C6.61292 12.1117 6.52742 12.3099 6.52742 12.5448C6.52742 12.7797 6.59867 12.9706 6.73406 13.11C6.86945 13.2495 7.13309 13.3816 7.51788 13.5064V11.664C7.21148 11.6933 6.96921 11.7887 6.79107 11.9502ZM8.97151 16.6114C9.1639 16.4499 9.26366 16.2444 9.26366 15.9948C9.26366 15.7452 9.18528 15.5471 9.03564 15.4076C8.886 15.2608 8.60097 15.1286 8.18769 14.9965V16.9124C8.51547 16.8757 8.77199 16.7729 8.97151 16.6114Z" fill="#FFDA00"/>
<path d="M18.2468 15.9728C22.5285 15.9728 25.9995 12.3972 25.9995 7.9864C25.9995 3.57563 22.5285 0 18.2468 0C13.9651 0 10.4941 3.57563 10.4941 7.9864C10.4941 12.3972 13.9651 15.9728 18.2468 15.9728Z" fill="#FFDA00"/>
<path d="M18.2475 14.6295C21.809 14.6295 24.6962 11.6552 24.6962 7.98636C24.6962 4.31748 21.809 1.34326 18.2475 1.34326C14.686 1.34326 11.7988 4.31748 11.7988 7.98636C11.7988 11.6552 14.686 14.6295 18.2475 14.6295Z" fill="#FFBC00"/>
<path d="M18.2456 13.9615C21.449 13.9615 24.0458 11.2864 24.0458 7.98641C24.0458 4.68644 21.449 2.01129 18.2456 2.01129C15.0422 2.01129 12.4453 4.68644 12.4453 7.98641C12.4453 11.2864 15.0422 13.9615 18.2456 13.9615Z" fill="#FFDA00"/>
<path d="M18.027 12.3906V11.6126C17.0864 11.5098 16.2384 11.1281 15.4902 10.4528L16.2456 9.52786C16.8227 10.049 17.4213 10.3573 18.0341 10.4528V8.3901C17.2574 8.19925 16.6873 7.94967 16.3239 7.63403C15.9605 7.31839 15.7824 6.85595 15.7824 6.24669C15.7824 5.63743 15.989 5.13094 16.4094 4.7419C16.8227 4.35286 17.3714 4.13998 18.0341 4.10328V3.57477H18.6968V4.11796C19.4521 4.17668 20.1718 4.44094 20.8416 4.91807L20.1718 5.89435C19.7157 5.56403 19.2241 5.35849 18.6968 5.27775V7.27435H18.7253C19.5162 7.4652 20.1005 7.72212 20.471 8.05244C20.8416 8.37542 21.0268 8.85254 21.0268 9.46914C21.0268 10.0857 20.8131 10.5922 20.3855 10.9813C19.958 11.3703 19.3951 11.5832 18.6896 11.6199V12.3833H18.027V12.3906ZM17.293 5.52733C17.1149 5.68882 17.0294 5.88701 17.0294 6.1219C17.0294 6.35679 17.1006 6.54765 17.236 6.68712C17.3714 6.82658 17.635 6.95871 18.0198 7.0835V5.24839C17.7134 5.27041 17.4712 5.36584 17.293 5.52733ZM19.4663 10.1885C19.6587 10.027 19.7585 9.82148 19.7585 9.57191C19.7585 9.32233 19.6801 9.12414 19.5305 8.98467C19.3808 8.83786 19.0958 8.70574 18.6825 8.57361V10.4895C19.0174 10.4528 19.2739 10.3573 19.4663 10.1885Z" fill="#FFBC00"/>
</svg>
