<svg width="30" height="27" viewBox="0 0 30 27" fill="none" xmlns="http://www.w3.org/2000/svg">
<path d="M15 0C6.72898 0 0 6.05608 0 13.5C0 20.9439 6.72898 27 15 27C23.271 27 30 20.9439 30 13.5C30 6.05608 23.271 0 15 0Z" fill="#72CCC5"/>
<path d="M19.6172 23.1076C11.204 23.1076 4.35933 16.9963 4.35933 9.48454C4.35933 6.72198 5.28593 4.14937 6.87517 2C2.73663 4.43909 0 8.6278 0 13.3769C0 20.8887 6.84465 27 15.2579 27C20.577 27 25.2682 24.5566 28 20.8615C25.5926 22.2803 22.7113 23.1076 19.6172 23.1076Z" fill="#11BBA3"/>
<path d="M25.3678 4.16501C25.3598 3.89876 25.2313 3.64728 25.0124 3.46944C22.2579 1.23216 18.7017 0 14.9988 0C11.8519 0 8.8392 0.872844 6.28644 2.52421C5.83198 2.81819 5.7033 3.37876 5.99079 3.81228L7.65158 6.31797C7.78314 6.51649 7.98891 6.66581 8.23145 6.73911L10.9375 7.55547L11.8395 10.005C11.915 10.2097 12.0634 10.3857 12.2617 10.5052L15.2392 12.302L17.2547 15.9511C17.4564 16.3158 17.9023 16.5307 18.349 16.4791C18.7821 16.429 19.1465 16.1361 19.2525 15.7525L20.3239 11.8733C20.3452 11.7964 20.3559 11.7174 20.3559 11.6381V9.13025L25.0545 4.87728C25.2624 4.68865 25.3758 4.43115 25.3678 4.16501Z" fill="#66BF00"/>
<path d="M29.6646 10.7145C29.5416 10.1961 28.9817 9.86329 28.4068 9.96715L24.4325 10.6867C24.0083 10.7635 23.6769 11.0636 23.5922 11.4474L22.5208 16.2965C22.4651 16.5488 22.5224 16.8106 22.6799 17.0247L24.8227 19.9341C24.8336 19.949 24.8452 19.9636 24.857 19.978L25.7785 21.09C26.2159 21.6181 27.1287 21.5931 27.5302 21.0421C29.1459 18.824 29.9999 16.2427 29.9999 13.5773C29.9998 12.6157 29.8871 11.6527 29.6646 10.7145Z" fill="#66BF00"/>
<path d="M12.5433 14.8312C12.3937 14.6958 12.2032 14.6036 11.9959 14.566L7.04011 13.6689L4.07143 10.0861C3.7808 9.73516 3.26634 9.60459 2.8164 9.76743L0.887327 10.466C0.543219 10.5905 0.294647 10.8672 0.230118 11.1974C0.07746 11.9787 0 12.7796 0 13.5773C0 16.1805 0.816522 18.7102 2.36131 20.8927C3.86467 23.0165 5.98305 24.7175 8.48798 25.8118C8.85569 25.9722 9.30425 25.9264 9.623 25.6956L14.5978 22.0931C14.759 21.9763 14.8797 21.8198 14.9449 21.6426L16.0163 18.7331C16.1446 18.3846 16.0444 18.0003 15.7575 17.7405L12.5433 14.8312Z" fill="#66BF00"/>
</svg>
