<svg width="116" height="105" viewBox="0 0 116 105" fill="none" xmlns="http://www.w3.org/2000/svg">
<g clip-path="url(#clip0_160_320)">
<path d="M56.9684 55.994C42.042 55.994 29.8984 66.986 29.8984 80.497C29.8984 94.008 42.042 105 56.9684 105C71.8948 105 84.0384 94.008 84.0384 80.497C84.0384 66.986 71.8948 55.994 56.9684 55.994Z" fill="#72CCC5"/>
<path d="M64.7026 97.9992C49.7762 97.9992 37.6326 87.0072 37.6326 73.4962C37.6326 68.5274 39.2766 63.9002 42.0961 60.0343C34.7537 64.4213 29.8984 71.9553 29.8984 80.4972C29.8984 94.0082 42.042 105 56.9684 105C66.4054 105 74.7284 100.605 79.5751 93.9592C75.3039 96.5112 70.192 97.9992 64.7026 97.9992Z" fill="#11BBA3"/>
<path d="M75.681 63.5106C75.6665 63.0301 75.4345 62.5762 75.0396 62.2553C70.0686 58.2177 63.6508 55.994 56.9681 55.994C51.289 55.994 45.852 57.5692 41.245 60.5494C40.4249 61.08 40.1927 62.0916 40.7115 62.874L43.7087 67.396C43.9461 67.7543 44.3175 68.0237 44.7552 68.156L49.6387 69.6293L51.2666 74.05C51.4028 74.4193 51.6706 74.737 52.0285 74.9527L57.4019 78.1952L61.0394 84.7807C61.4032 85.439 62.208 85.8268 63.0141 85.7337C63.7958 85.6432 64.4535 85.1146 64.6447 84.4224L66.5782 77.4217C66.6167 77.2828 66.636 77.1403 66.636 76.9971V72.4713L75.1155 64.796C75.4907 64.4556 75.6953 63.9909 75.681 63.5106Z" fill="#66BF00"/>
<path d="M83.4338 75.3305C83.2118 74.3949 82.2013 73.7942 81.1639 73.9817L73.9915 75.2802C73.226 75.4188 72.6279 75.9605 72.4749 76.653L70.5414 85.4041C70.4409 85.8594 70.5444 86.3319 70.8285 86.7183L74.6957 91.9689C74.7154 91.9958 74.7363 92.0222 74.7576 92.048L76.4205 94.0549C77.2099 95.0079 78.8572 94.9628 79.5818 93.9684C82.4976 89.9655 84.0389 85.3071 84.0389 80.4968C84.0387 78.7614 83.8353 77.0236 83.4338 75.3305Z" fill="#66BF00"/>
<path d="M52.5352 82.7596C52.2652 82.5154 51.9215 82.3489 51.5472 82.281L42.6036 80.6621L37.2461 74.1962C36.7216 73.5629 35.7932 73.3273 34.9812 73.6211L31.4998 74.8818C30.8788 75.1065 30.4302 75.6059 30.3137 76.2018C30.0382 77.6118 29.8984 79.0572 29.8984 80.4968C29.8984 85.1947 31.372 89.76 34.1599 93.6987C36.873 97.5316 40.696 100.601 45.2166 102.576C45.8802 102.866 46.6897 102.783 47.2649 102.367L56.243 95.8652C56.5339 95.6544 56.7516 95.372 56.8694 95.052L58.8029 89.8014C59.0344 89.1724 58.8536 88.4789 58.3357 88.0101L52.5352 82.7596Z" fill="#66BF00"/>
<path d="M37.6659 74.7029L37.2461 74.1962C36.7216 73.5629 35.7931 73.3273 34.9811 73.6211L31.4998 74.8818C30.8788 75.1065 30.4302 75.6059 30.3137 76.2018C30.0382 77.6118 29.8984 79.0572 29.8984 80.4968C29.8984 85.1947 31.372 89.76 34.1599 93.6987C36.8729 97.5317 40.696 100.601 45.2166 102.576C45.4839 102.693 45.771 102.75 46.0569 102.75C46.4878 102.75 46.9154 102.62 47.2652 102.367L55.37 96.4974C45.4248 93.1811 38.2054 84.7229 37.6659 74.7029Z" fill="#58AB23"/>
<path d="M108.932 18.3894C108.413 17.5443 107.236 17.2401 106.303 17.7093L91.7732 25.0159V12.2387C91.7732 11.2721 90.9075 10.4885 89.8397 10.4885C88.7719 10.4885 87.9062 11.2721 87.9062 12.2387V28.0039C87.9062 28.0065 87.9062 28.0094 87.9062 28.0119V29.7407C87.9062 30.7072 88.7719 31.4908 89.8397 31.4908C90.9075 31.4908 91.7732 30.7072 91.7732 29.7407V29.0202L108.181 20.7693C109.114 20.2999 109.451 19.2345 108.932 18.3894Z" fill="#EBEBEB"/>
<path d="M91.4306 0.742589C90.675 -0.24753 89.0045 -0.24753 88.2489 0.742589C87.2228 2.08688 82.1055 8.95927 82.1055 12.2387C82.1055 16.0991 85.5751 19.2394 89.8396 19.2394C94.1045 19.2394 97.5738 16.0989 97.5738 12.2387C97.5741 8.95927 92.4567 2.08708 91.4306 0.742589Z" fill="#66BF00"/>
<path d="M91.7734 17.4893C87.5085 17.4893 84.0392 14.3487 84.0392 10.4885C84.0392 7.74069 87.6311 2.47181 89.3992 0.0447083C88.9508 0.135968 88.5344 0.368322 88.2489 0.742591C87.2228 2.08688 82.1055 8.95927 82.1055 12.2387C82.1055 16.0991 85.5751 19.2394 89.8396 19.2394C92.4646 19.2394 94.7871 18.0483 96.1861 16.233C94.9337 17.0238 93.4128 17.4893 91.7734 17.4893Z" fill="#58AB23"/>
<path d="M115.371 15.3739C115.077 14.8643 114.525 14.5181 113.895 14.4476C112.103 14.2476 103.004 13.326 99.7931 14.845C97.0114 16.1612 95.3498 18.9542 95.6803 21.7847C95.7825 22.6595 96.0716 23.5133 96.5218 24.2928C97.9412 26.751 100.925 28.2413 103.979 28.0291C105.018 27.9569 106.036 27.6907 106.959 27.2539C110.17 25.7347 114.528 18.446 115.369 17C115.664 16.4916 115.666 15.8835 115.371 15.3739Z" fill="#66BF00"/>
<path d="M107.232 26.2796C104.177 26.492 101.194 25.0015 99.7743 22.5433C99.3244 21.764 99.0353 20.91 98.9329 20.0354C98.6893 17.9501 99.5294 15.8876 101.099 14.4185C100.602 14.5327 100.158 14.6725 99.7931 14.845C97.0114 16.1612 95.3498 18.9542 95.6803 21.7847C95.7825 22.6593 96.0716 23.5133 96.5218 24.2928C97.9412 26.7511 100.925 28.2414 103.979 28.0291C105.018 27.9569 106.036 27.6907 106.959 27.2539C107.497 26.9992 108.068 26.58 108.648 26.0563C108.185 26.1701 107.711 26.2464 107.232 26.2796Z" fill="#58AB23"/>
<path d="M87.9062 19.0179C88.5245 19.1625 89.1725 19.2396 89.8397 19.2396C90.507 19.2396 91.1549 19.1625 91.7732 19.0179V12.2387C91.7732 11.2721 90.9075 10.4885 89.8397 10.4885C88.7719 10.4885 87.9062 11.2721 87.9062 12.2387V19.0179Z" fill="#58AB23"/>
<path d="M108.933 18.3894C108.414 17.5442 107.237 17.2401 106.303 17.7093L95.9258 22.928C96.0719 23.3996 96.2708 23.858 96.5221 24.2928C96.8798 24.9123 97.3373 25.4697 97.8701 25.9545L108.182 20.7693C109.115 20.2999 109.451 19.2345 108.933 18.3894Z" fill="#58AB23"/>
<path d="M99.5076 29.7409H80.1718C79.104 29.7409 78.2383 30.5245 78.2383 31.491V43.1161C78.2383 43.6596 78.517 44.1721 78.993 44.5035L98.3287 57.9669C98.6733 58.2068 99.0891 58.3299 99.508 58.3299C99.7987 58.3299 100.091 58.2706 100.362 58.1498C101.023 57.8551 101.441 57.2464 101.441 56.5797V31.491C101.441 30.5243 100.575 29.7409 99.5076 29.7409Z" fill="white"/>
<path d="M78.2383 35.8083V43.1161C78.2383 43.6596 78.517 44.1721 78.993 44.5035L98.3287 57.9669C98.6733 58.2068 99.0891 58.3299 99.508 58.3299C99.7987 58.3299 100.091 58.2706 100.362 58.1498C101.023 57.8551 101.441 57.2464 101.441 56.5797V51.9864L78.2383 35.8083Z" fill="#EBEBEB"/>
<path d="M113.473 66.1971C113.255 64.6904 112.403 63.3506 111.073 62.4243L60.8 27.42C58.5435 25.8487 55.3929 25.8485 53.1368 27.42L2.86403 62.4245C1.53342 63.3508 0.68132 64.6906 0.464046 66.1973C0.246772 67.704 0.691062 69.197 1.71445 70.401C3.80177 72.8574 7.8099 73.3332 10.5268 71.4416L56.9682 39.1052L103.41 71.4416C105.502 72.898 108.475 73.009 110.684 71.6965C111.272 71.3466 111.793 70.9061 112.223 70.4008C113.246 69.1966 113.69 67.7038 113.473 66.1971Z" fill="white"/>
</g>
<defs>
<clipPath id="clip0_160_320">
<rect width="116" height="105" fill="white"/>
</clipPath>
</defs>
</svg>
