<svg width="107" height="97" viewBox="0 0 107 97" fill="none" xmlns="http://www.w3.org/2000/svg">
<path d="M105.09 28.9632L88.6678 4.04806C87.5414 2.33887 85.1909 1 83.3172 1H73.176C72.3413 1 71.1054 1.43517 69.9567 3.5082C67.6752 7.62547 60.9081 10.5008 53.5003 10.5008C45.8551 10.5008 39.0286 7.51217 36.8992 3.23316C36.1827 1.7931 35.0703 1 33.7671 1H23.683C21.809 1 19.4587 2.33887 18.3322 4.04806L1.9098 28.9632C0.676666 30.8339 0.699773 33.7441 1.96262 35.5887L11.0463 48.8606C11.7272 49.8553 12.7105 50.4258 13.7436 50.4258C14.7368 50.4258 15.6646 49.9177 16.3561 48.9952L23.6724 39.2323V92.2953C23.6724 94.7701 25.4363 96.7837 27.6047 96.7837H79.3954C81.5637 96.7837 83.3278 94.7704 83.3278 92.2953V39.2323L90.6441 48.9952C91.3356 49.9177 92.2632 50.4258 93.2565 50.4258H93.2568C94.29 50.4258 95.2732 49.855 95.9539 48.8604L105.038 35.5884C106.3 33.7439 106.323 30.8336 105.09 28.9632ZM50.322 73.2362L37.7436 73.1374L36.472 70.7525L31.5206 60.8612L34.1029 55.5092L31.3843 53.6378L41.024 50.9587L43.2658 61.7881L40.672 60.0248L38.5886 64.1884L50.3814 64.3009L50.322 73.2362ZM53.9478 35.7518L47.9991 47.3745L41.2364 42.8732L46.7094 32.1706C47.2481 31.1213 47.6758 30.392 47.6758 30.392L59.9914 30.4062L62.7759 35.6245L65.5501 33.8626L62.7941 44.7412L53.4475 41.5772L56.0774 39.8852L53.9478 35.7518ZM74.2993 62.5494L69.097 72.2714H63.7438L63.6191 75.8922L56.9128 67.5467L64.1423 60.0813L64.0404 63.525L68.2406 63.5995L62.6382 51.7548L69.5242 47.504L75.6159 59.9958L74.2993 62.5494Z" fill="white" stroke="white" stroke-width="0.31662"/>
</svg>
