<svg width="96" height="91" viewBox="0 0 96 91" fill="none" xmlns="http://www.w3.org/2000/svg">
<g clip-path="url(#clip0_160_306)">
<path d="M36.2276 1.87103L20 28.5118L37.3203 37.9927L46.0845 23.6046L59.3208 1.87103H36.2276Z" fill="#ECECEC"/>
<path d="M59.3253 1.87103H36.2305L53.126 29.6142L46.2426 33.3828L58.0244 35.6878L69.8077 37.9955L73.5928 27.1703L77.3781 16.3425L70.4463 20.136L59.3253 1.87103Z" fill="white"/>
<path d="M11.548 81.4917H44.0015V62.5353H26.4747H0.00195312L11.548 81.4917Z" fill="#ECECEC"/>
<path d="M0 62.5298L11.5473 81.4917L28.4444 53.7487L35.329 57.5142L31.5454 46.688L27.7616 35.8626L15.9786 38.1705L4.19528 40.4782L11.124 44.269L0 62.5298Z" fill="white"/>
<path opacity="0.1" d="M31.0909 62.5353L11.5469 80.8977V81.4917L23.0914 62.5353H31.0909Z" fill="black"/>
<path d="M96 62.5855L79.7754 35.9433L62.4551 45.4242L71.2147 59.8137L84.4512 81.5418L96 62.5855Z" fill="#ECECEC"/>
<path d="M84.4521 81.5473L95.9979 62.591H62.2041V55.054L54.2061 63.574L46.2051 72.0943L54.2061 80.6143L62.2041 89.1289V81.5473H84.4521Z" fill="white"/>
<path opacity="0.1" d="M68.9062 56.0204L95.455 62.8854L95.997 62.5855H72.9082L68.9062 56.0204Z" fill="black"/>
<path opacity="0.1" d="M43.7759 27.3952L36.7708 2.16811L36.2305 1.87387L47.7748 20.8276L43.7759 27.3952Z" fill="black"/>
</g>
<defs>
<clipPath id="clip0_160_306">
<rect width="96" height="91" fill="white"/>
</clipPath>
</defs>
</svg>
